<svg id="Layer_1" data-name="Layer 1" xmlns="http://www.w3.org/2000/svg" xmlns:xlink="http://www.w3.org/1999/xlink" viewBox="0 0 3968 1919"><defs><image id="image" width="128" height="128" xlink:href="NEW_TILE/mapokrastas0.png"/><image id="image-2" width="128" height="128" xlink:href="NEW_TILE/grasspath.png"/><image id="image-3" width="128" height="128" xlink:href="NEW_TILE/grasspathDouble0000%20-%20Copy.png"/><image id="image-4" width="128" height="128" xlink:href="NEW_TILE/grassFill.png"/><image id="image-5" width="128" height="128" xlink:href="NEW_TILE/grasspathcorner.png"/><image id="image-6" width="128" height="128" xlink:href="NEW_TILE/onesidedCorner2.png"/><image id="image-7" width="128" height="128" xlink:href="NEW_TILE/corner2.png"/><image id="image-8" width="128" height="128" xlink:href="NEW_TILE/path2.png"/><image id="image-9" width="128" height="128" xlink:href="NEW_TILE/path3.png"/><image id="image-10" width="128" height="128" xlink:href="NEW_TILE/FillTile.png"/><image id="image-11" width="128" height="128" xlink:href="NEW_TILE/mapokrastas1.png"/><image id="image-12" width="128" height="128" xlink:href="NEW_TILE/onesidedCorner.png"/><image id="image-13" width="128" height="128" xlink:href="NEW_TILE/corner1.png"/><image id="image-14" width="128" height="128" xlink:href="NEW_TILE/path1.png"/><image id="image-15" width="128" height="128" xlink:href="NEW_TILE/path.png"/><image id="image-16" width="128" height="128" xlink:href="NEW_TILE/path4.png"/><image id="image-17" width="128" height="128" xlink:href="NEW_TILE/bridgeGrass1.png"/><image id="image-18" width="128" height="128" xlink:href="NEW_TILE/bridgeGrass0.png"/><image id="image-19" width="128" height="128" xlink:href="NEW_TILE/wood.png"/><image id="image-20" width="128" height="128" xlink:href="NEW_TILE/water2.png"/><image id="image-21" width="128" height="128" xlink:href="NEW_TILE/water.png"/><image id="image-22" width="128" height="128" xlink:href="NEW_TILE/water0.png"/><image id="image-23" width="128" height="128" xlink:href="NEW_TILE/grasspathDouble000.png"/><image id="image-24" width="128" height="128" xlink:href="NEW_TILE/01461001.png"/><image id="image-25" width="128" height="128" xlink:href="NEW_TILE/000000001.png"/><image id="image-26" width="128" height="128" xlink:href="NEW_TILE/000001.png"/><image id="image-27" width="128" height="128" xlink:href="NEW_TILE/0141001.png"/><image id="image-28" width="128" height="128" xlink:href="NEW_TILE/0001001.png"/><image id="image-29" width="128" height="128" xlink:href="NEW_TILE/1101001.png"/><image id="image-30" width="128" height="128" xlink:href="NEW_TILE/corner.png"/><image id="image-31" width="128" height="128" xlink:href="NEW_TILE/corner3.png"/><image id="image-32" width="128" height="128" xlink:href="NEW_TILE/onesidedCorner1.png"/><image id="image-33" width="128" height="128" xlink:href="NEW_TILE/onesidedCorner3.png"/><image id="image-34" width="128" height="128" xlink:href="NEW_TILE/grasspathDouble0000.png"/><image id="image-35" width="128" height="128" xlink:href="NEW_TILE/broken000.png"/></defs><use xlink:href="#image-11"/><use transform="translate(256) rotate(90)" xlink:href="#image"/><use transform="translate(384) rotate(90)" xlink:href="#image"/><use transform="translate(512) rotate(90)" xlink:href="#image"/><use transform="translate(640) rotate(90)" xlink:href="#image"/><use transform="translate(768) rotate(90)" xlink:href="#image"/><use transform="translate(896) rotate(90)" xlink:href="#image"/><use transform="translate(1024) rotate(90)" xlink:href="#image"/><use transform="translate(1152) rotate(90)" xlink:href="#image"/><use transform="translate(1280) rotate(90)" xlink:href="#image"/><use transform="translate(1408) rotate(90)" xlink:href="#image"/><use transform="translate(1536) rotate(90)" xlink:href="#image"/><use transform="translate(1664) rotate(90)" xlink:href="#image"/><use transform="translate(1792) rotate(90)" xlink:href="#image"/><use transform="translate(1920) rotate(90)" xlink:href="#image"/><use transform="translate(2048) rotate(90)" xlink:href="#image"/><use transform="translate(2176) rotate(90)" xlink:href="#image"/><use transform="translate(2304) rotate(90)" xlink:href="#image"/><use transform="translate(2432) rotate(90)" xlink:href="#image"/><use transform="translate(2560) rotate(90)" xlink:href="#image"/><use transform="translate(0 128)" xlink:href="#image"/><use transform="translate(0 256)" xlink:href="#image"/><use transform="translate(0 384)" xlink:href="#image"/><use transform="translate(0 512)" xlink:href="#image"/><use transform="translate(0 640)" xlink:href="#image"/><use transform="translate(0 768)" xlink:href="#image"/><use transform="translate(0 896)" xlink:href="#image"/><use transform="translate(0 1024)" xlink:href="#image"/><use transform="translate(128 256) rotate(-90)" xlink:href="#image-3"/><use transform="translate(256 128)" xlink:href="#image-2"/><use transform="translate(384 128)" xlink:href="#image-2"/><use transform="translate(512 128)" xlink:href="#image-2"/><use transform="translate(640 128)" xlink:href="#image-2"/><use transform="translate(768 128)" xlink:href="#image-2"/><use transform="translate(896 128)" xlink:href="#image-2"/><use transform="translate(1024 128)" xlink:href="#image-2"/><use transform="translate(1152 128)" xlink:href="#image-2"/><use transform="translate(128 640) rotate(-90)" xlink:href="#image-2"/><use transform="translate(128 512) rotate(-90)" xlink:href="#image-2"/><use transform="translate(128 384) rotate(-90)" xlink:href="#image-2"/><use transform="translate(128 1024) rotate(-90)" xlink:href="#image-2"/><use transform="translate(128 1152) rotate(-90)" xlink:href="#image-2"/><use transform="translate(128 896) rotate(-90)" xlink:href="#image-2"/><use transform="translate(128 768) rotate(-90)" xlink:href="#image-2"/><use transform="translate(640 384) rotate(180)" xlink:href="#image-5"/><use transform="translate(640 384) rotate(90)" xlink:href="#image-3"/><use transform="translate(512 1408)" xlink:href="#image-3"/><use transform="translate(384 1280)" xlink:href="#image-3"/><use transform="translate(896 384) rotate(180)" xlink:href="#image-2"/><use transform="translate(1024 384) rotate(180)" xlink:href="#image-2"/><use transform="translate(1152 384) rotate(180)" xlink:href="#image-2"/><use transform="translate(1280 384) rotate(180)" xlink:href="#image-2"/><use transform="translate(2816 384) rotate(180)" xlink:href="#image-2"/><use transform="translate(2944 384) rotate(180)" xlink:href="#image-2"/><use transform="translate(3072 384) rotate(180)" xlink:href="#image-2"/><use transform="translate(3200 384) rotate(180)" xlink:href="#image-2"/><use transform="translate(3328 384) rotate(180)" xlink:href="#image-2"/><use transform="translate(256 256)" xlink:href="#image-4"/><use transform="translate(256 1536)" xlink:href="#image-4"/><use transform="translate(256 1408)" xlink:href="#image-4"/><use transform="translate(384 1536)" xlink:href="#image-4"/><use transform="translate(256 384)" xlink:href="#image-4"/><use transform="translate(384 256)" xlink:href="#image-4"/><use transform="translate(1536 896)" xlink:href="#image-4"/><use transform="translate(768 384) rotate(180)" xlink:href="#image-2"/><use transform="translate(1024 1536)" xlink:href="#image-2"/><use transform="translate(1408 1024) rotate(-90)" xlink:href="#image-2"/><use transform="translate(1792 896) rotate(90)" xlink:href="#image-2"/><use transform="translate(1664 1152) rotate(180)" xlink:href="#image-2"/><use transform="translate(1536 768)" xlink:href="#image-2"/><use transform="translate(896 1536)" xlink:href="#image-2"/><use transform="translate(768 1536)" xlink:href="#image-2"/><use transform="translate(640 1536)" xlink:href="#image-2"/><use transform="translate(1152 1536)" xlink:href="#image-2"/><use transform="translate(512 512) rotate(90)" xlink:href="#image-3"/><use transform="translate(512 512) rotate(180)" xlink:href="#image-5"/><use transform="translate(512 1408) rotate(90)" xlink:href="#image-5"/><use transform="translate(384 1280) rotate(90)" xlink:href="#image-5"/><use transform="translate(640 1536) rotate(90)" xlink:href="#image-5"/><use transform="translate(3328 1536)" xlink:href="#image-5"/><use transform="translate(3456 1408)" xlink:href="#image-5"/><use transform="translate(3456 512) rotate(-90)" xlink:href="#image-5"/><use transform="translate(3328 384) rotate(-90)" xlink:href="#image-5"/><use transform="translate(384 640) rotate(180)" xlink:href="#image-5"/><use transform="translate(384 640) rotate(90)" xlink:href="#image-2"/><use transform="translate(384 768) rotate(90)" xlink:href="#image-2"/><use transform="translate(384 896) rotate(90)" xlink:href="#image-2"/><use transform="translate(384 1024) rotate(90)" xlink:href="#image-2"/><use transform="translate(0 1152)" xlink:href="#image"/><use transform="translate(0 1280)" xlink:href="#image"/><use transform="translate(0 1408)" xlink:href="#image"/><use transform="translate(0 1536)" xlink:href="#image"/><use transform="translate(128 1536) rotate(-90)" xlink:href="#image-2"/><use transform="translate(128 1664) rotate(-90)" xlink:href="#image-2"/><use transform="translate(128 1408) rotate(-90)" xlink:href="#image-2"/><use transform="translate(128 1280) rotate(-90)" xlink:href="#image-2"/><use transform="translate(384 1152) rotate(90)" xlink:href="#image-2"/><use transform="translate(640 384)" xlink:href="#image-6"/><use transform="translate(512 512)" xlink:href="#image-6"/><use transform="translate(384 640)" xlink:href="#image-6"/><use transform="translate(640 512)" xlink:href="#image-7"/><use transform="translate(512 640)" xlink:href="#image-7"/><use transform="translate(384 768)" xlink:href="#image-8"/><use transform="translate(384 896)" xlink:href="#image-8"/><use transform="translate(384 1024)" xlink:href="#image-8"/><use transform="translate(768 384)" xlink:href="#image-9"/><use transform="translate(896 384)" xlink:href="#image-9"/><use transform="translate(1024 384)" xlink:href="#image-9"/><use transform="translate(1152 384)" xlink:href="#image-9"/><use transform="translate(1280 384)" xlink:href="#image-9"/><use transform="translate(2560 384)" xlink:href="#image-9"/><use transform="translate(2688 384)" xlink:href="#image-9"/><use transform="translate(2816 384)" xlink:href="#image-9"/><use transform="translate(2944 384)" xlink:href="#image-9"/><use transform="translate(3072 384)" xlink:href="#image-9"/><use transform="translate(768 512)" xlink:href="#image-10"/><use transform="translate(896 512)" xlink:href="#image-10"/><use transform="translate(1024 512)" xlink:href="#image-10"/><use transform="translate(1152 512)" xlink:href="#image-10"/><use transform="translate(640 640)" xlink:href="#image-10"/><use transform="translate(768 640)" xlink:href="#image-10"/><use transform="translate(2560 640)" xlink:href="#image-10"/><use transform="translate(2560 1152)" xlink:href="#image-10"/><use transform="translate(2688 1280)" xlink:href="#image-10"/><use transform="translate(2816 1280)" xlink:href="#image-10"/><use transform="translate(2944 1280)" xlink:href="#image-10"/><use transform="translate(3072 1280)" xlink:href="#image-10"/><use transform="translate(896 640)" xlink:href="#image-10"/><use transform="translate(1024 640)" xlink:href="#image-10"/><use transform="translate(1152 640)" xlink:href="#image-10"/><use transform="translate(1280 640)" xlink:href="#image-10"/><use transform="translate(512 768)" xlink:href="#image-10"/><use transform="translate(640 768)" xlink:href="#image-10"/><use transform="translate(768 768)" xlink:href="#image-10"/><use transform="translate(896 768)" xlink:href="#image-10"/><use transform="translate(1024 768)" xlink:href="#image-10"/><use transform="translate(1152 768)" xlink:href="#image-10"/><use transform="translate(512 896)" xlink:href="#image-10"/><use transform="translate(640 896)" xlink:href="#image-10"/><use transform="translate(768 896)" xlink:href="#image-10"/><use transform="translate(896 896)" xlink:href="#image-10"/><use transform="translate(1024 896)" xlink:href="#image-10"/><use transform="translate(1152 896)" xlink:href="#image-10"/><use transform="translate(512 1024)" xlink:href="#image-10"/><use transform="translate(640 1024)" xlink:href="#image-10"/><use transform="translate(768 1024)" xlink:href="#image-10"/><use transform="translate(896 1024)" xlink:href="#image-10"/><use transform="translate(1024 1024)" xlink:href="#image-10"/><use transform="translate(1152 1024)" xlink:href="#image-10"/><use transform="translate(1280 1152)" xlink:href="#image-10"/><use transform="translate(640 1152)" xlink:href="#image-10"/><use transform="translate(768 1152)" xlink:href="#image-10"/><use transform="translate(896 1152)" xlink:href="#image-10"/><use transform="translate(1024 1152)" xlink:href="#image-10"/><use transform="translate(1152 1152)" xlink:href="#image-10"/><use transform="translate(768 1280)" xlink:href="#image-10"/><use transform="translate(896 1280)" xlink:href="#image-10"/><use transform="translate(1024 1280)" xlink:href="#image-10"/><use transform="translate(1152 1280)" xlink:href="#image-10"/><use transform="matrix(1, 0, 0, -1, 0, 1919)" xlink:href="#image-11"/><use transform="matrix(0, -1, -1, 0, 256, 1919)" xlink:href="#image"/><use transform="matrix(0, -1, -1, 0, 384, 1919)" xlink:href="#image"/><use transform="matrix(0, -1, -1, 0, 512, 1919)" xlink:href="#image"/><use transform="matrix(0, -1, -1, 0, 640, 1919)" xlink:href="#image"/><use transform="matrix(0, -1, -1, 0, 768, 1919)" xlink:href="#image"/><use transform="matrix(0, -1, -1, 0, 896, 1919)" xlink:href="#image"/><use transform="matrix(0, -1, -1, 0, 1024, 1919)" xlink:href="#image"/><use transform="matrix(0, -1, -1, 0, 1152, 1919)" xlink:href="#image"/><use transform="matrix(0, -1, -1, 0, 1280, 1919)" xlink:href="#image"/><use transform="matrix(0, -1, -1, 0, 1408, 1919)" xlink:href="#image"/><use transform="matrix(0, -1, -1, 0, 1536, 1919)" xlink:href="#image"/><use transform="matrix(0, -1, -1, 0, 1664, 1919)" xlink:href="#image"/><use transform="matrix(0, -1, -1, 0, 1792, 1919)" xlink:href="#image"/><use transform="matrix(0, -1, -1, 0, 1920, 1919)" xlink:href="#image"/><use transform="matrix(0, -1, -1, 0, 2048, 1919)" xlink:href="#image"/><use transform="matrix(0, -1, -1, 0, 2176, 1919)" xlink:href="#image"/><use transform="matrix(0, -1, -1, 0, 2304, 1919)" xlink:href="#image"/><use transform="matrix(0, -1, -1, 0, 2432, 1919)" xlink:href="#image"/><use transform="matrix(0, -1, -1, 0, 2560, 1919)" xlink:href="#image"/><use transform="matrix(1, 0, 0, -1, 0, 1791)" xlink:href="#image"/><use transform="matrix(0, 1, 1, 0, 128, 1663)" xlink:href="#image-3"/><use transform="matrix(1, 0, 0, -1, 256, 1791)" xlink:href="#image-2"/><use transform="matrix(-1, 0, 0, 1, 3968, 0)" xlink:href="#image-11"/><use transform="matrix(0, 1, 1, 0, 3712, 0)" xlink:href="#image"/><use transform="matrix(0, 1, 1, 0, 3584, 0)" xlink:href="#image"/><use transform="matrix(-1, 0, 0, 1, 3968, 128)" xlink:href="#image"/><use transform="matrix(-1, 0, 0, 1, 3968, 256)" xlink:href="#image"/><use transform="matrix(-1, 0, 0, 1, 3968, 384)" xlink:href="#image"/><use transform="matrix(-1, 0, 0, 1, 3968, 512)" xlink:href="#image"/><use transform="matrix(-1, 0, 0, 1, 3968, 640)" xlink:href="#image"/><use transform="matrix(-1, 0, 0, 1, 3968, 768)" xlink:href="#image"/><use transform="matrix(-1, 0, 0, 1, 3968, 896)" xlink:href="#image"/><use transform="matrix(-1, 0, 0, 1, 3968, 1024)" xlink:href="#image"/><use transform="matrix(0, -1, -1, 0, 3840, 256)" xlink:href="#image-3"/><use transform="matrix(-1, 0, 0, 1, 3712, 128)" xlink:href="#image-2"/><use transform="matrix(0, 1, 1, 0, 3456, 0)" xlink:href="#image"/><use transform="matrix(-1, 0, 0, 1, 3584, 128)" xlink:href="#image-2"/><use transform="matrix(0, 1, 1, 0, 3328, 0)" xlink:href="#image"/><use transform="matrix(-1, 0, 0, 1, 3456, 128)" xlink:href="#image-2"/><use transform="matrix(0, 1, 1, 0, 3200, 0)" xlink:href="#image"/><use transform="matrix(-1, 0, 0, 1, 3328, 128)" xlink:href="#image-2"/><use transform="matrix(0, 1, 1, 0, 3072, 0)" xlink:href="#image"/><use transform="matrix(-1, 0, 0, 1, 3200, 128)" xlink:href="#image-2"/><use transform="matrix(0, 1, 1, 0, 2944, 0)" xlink:href="#image"/><use transform="matrix(-1, 0, 0, 1, 3072, 128)" xlink:href="#image-2"/><use transform="matrix(0, 1, 1, 0, 2816, 0)" xlink:href="#image"/><use transform="matrix(-1, 0, 0, 1, 2944, 128)" xlink:href="#image-2"/><use transform="matrix(0, 1, 1, 0, 2688, 0)" xlink:href="#image"/><use transform="matrix(-1, 0, 0, 1, 2816, 128)" xlink:href="#image-2"/><use transform="matrix(0, 1, 1, 0, 2560, 0)" xlink:href="#image"/><use transform="matrix(0, -1, -1, 0, 3840, 640)" xlink:href="#image-2"/><use transform="matrix(0, -1, -1, 0, 3840, 512)" xlink:href="#image-2"/><use transform="matrix(0, -1, -1, 0, 3840, 384)" xlink:href="#image-2"/><use transform="matrix(0, -1, -1, 0, 3840, 1024)" xlink:href="#image-2"/><use transform="matrix(0, -1, -1, 0, 3840, 1152)" xlink:href="#image-2"/><use transform="matrix(0, -1, -1, 0, 3840, 896)" xlink:href="#image-2"/><use transform="matrix(0, -1, -1, 0, 3840, 768)" xlink:href="#image-2"/><use transform="matrix(-1, 0, 0, 1, 3712, 256)" xlink:href="#image-4"/><use transform="matrix(-1, 0, 0, 1, 3584, 256)" xlink:href="#image-4"/><use transform="matrix(-1, 0, 0, 1, 3712, 1536)" xlink:href="#image-4"/><use transform="matrix(-1, 0, 0, 1, 3584, 1536)" xlink:href="#image-4"/><use transform="matrix(-1, 0, 0, 1, 3712, 1408)" xlink:href="#image-4"/><use transform="matrix(-1, 0, 0, 1, 3712, 384)" xlink:href="#image-4"/><use transform="matrix(0, 1, 1, 0, 3584, 1280)" xlink:href="#image-5"/><use transform="matrix(1, 0, 0, -1, 3584, 640)" xlink:href="#image-5"/><use transform="matrix(-1, 0, 0, 1, 3968, 1152)" xlink:href="#image"/><use transform="matrix(-1, 0, 0, 1, 3968, 1280)" xlink:href="#image"/><use transform="matrix(-1, 0, 0, 1, 3968, 1408)" xlink:href="#image"/><use transform="matrix(-1, 0, 0, 1, 3968, 1536)" xlink:href="#image"/><use transform="matrix(0, -1, -1, 0, 3840, 1536)" xlink:href="#image-2"/><use transform="matrix(0, -1, -1, 0, 3840, 1664)" xlink:href="#image-2"/><use transform="matrix(0, -1, -1, 0, 3840, 1408)" xlink:href="#image-2"/><use transform="matrix(0, -1, -1, 0, 3840, 1280)" xlink:href="#image-2"/><use transform="translate(3968 1919) rotate(180)" xlink:href="#image-11"/><use transform="translate(3712 1919) rotate(-90)" xlink:href="#image"/><use transform="translate(3584 1919) rotate(-90)" xlink:href="#image"/><use transform="translate(3968 1791) rotate(180)" xlink:href="#image"/><use transform="translate(3840 1663) rotate(90)" xlink:href="#image-3"/><use transform="translate(3712 1791) rotate(180)" xlink:href="#image-2"/><use transform="matrix(1, 0, 0, -1, 384, 1791)" xlink:href="#image-2"/><use transform="matrix(1, 0, 0, -1, 512, 1791)" xlink:href="#image-2"/><use transform="matrix(1, 0, 0, -1, 640, 1791)" xlink:href="#image-2"/><use transform="matrix(1, 0, 0, -1, 768, 1791)" xlink:href="#image-2"/><use transform="matrix(1, 0, 0, -1, 896, 1791)" xlink:href="#image-2"/><use transform="matrix(1, 0, 0, -1, 1024, 1791)" xlink:href="#image-2"/><use transform="matrix(1, 0, 0, -1, 1152, 1791)" xlink:href="#image-2"/><use transform="translate(384 1152)" xlink:href="#image-12"/><use transform="translate(512 1280)" xlink:href="#image-12"/><use transform="translate(640 1408)" xlink:href="#image-12"/><use transform="translate(512 1152)" xlink:href="#image-13"/><use transform="translate(640 1280)" xlink:href="#image-13"/><use transform="translate(768 1408)" xlink:href="#image-14"/><use transform="translate(2560 1408)" xlink:href="#image-14"/><use transform="translate(2688 1408)" xlink:href="#image-14"/><use transform="translate(2816 1408)" xlink:href="#image-14"/><use transform="translate(2944 1408)" xlink:href="#image-14"/><use transform="translate(3072 1408)" xlink:href="#image-14"/><use transform="translate(896 1408)" xlink:href="#image-14"/><use transform="translate(1024 1408)" xlink:href="#image-14"/><use transform="translate(1152 1408)" xlink:href="#image-14"/><use transform="translate(1280 1408)" xlink:href="#image-14"/><use transform="translate(1408 384)" xlink:href="#image-15"/><use transform="translate(2432 384)" xlink:href="#image-15"/><use transform="translate(2432 1408)" xlink:href="#image-15"/><use transform="translate(1408 640)" xlink:href="#image-15"/><use transform="translate(1536 640)" xlink:href="#image-15"/><use transform="translate(1408 1152)" xlink:href="#image-15"/><use transform="translate(1536 1152)" xlink:href="#image-15"/><use transform="translate(2304 640)" xlink:href="#image-15"/><use transform="translate(2432 640)" xlink:href="#image-15"/><use transform="translate(2304 1152)" xlink:href="#image-15"/><use transform="translate(2432 1152)" xlink:href="#image-15"/><use transform="translate(1408 1408)" xlink:href="#image-15"/><use transform="translate(1280 512)" xlink:href="#image-16"/><use transform="translate(1280 768)" xlink:href="#image-16"/><use transform="translate(1280 896)" xlink:href="#image-16"/><use transform="translate(1280 1024)" xlink:href="#image-16"/><use transform="translate(1280 1280)" xlink:href="#image-16"/><use transform="translate(1408 896) rotate(-90)" xlink:href="#image-3"/><use transform="translate(1664 768)" xlink:href="#image-3"/><use transform="translate(1280 128)" xlink:href="#image-3"/><use transform="translate(1280 1536)" xlink:href="#image-3"/><use transform="translate(1536 1152) rotate(180)" xlink:href="#image-3"/><use transform="translate(1792 1024) rotate(90)" xlink:href="#image-3"/><use transform="translate(1408 256) rotate(90)" xlink:href="#image-3"/><use transform="translate(1408 1663) rotate(90)" xlink:href="#image-3"/><use transform="translate(3200 1536)" xlink:href="#image-2"/><use transform="translate(3072 1536)" xlink:href="#image-2"/><use transform="translate(2944 1536)" xlink:href="#image-2"/><use transform="translate(2816 1536)" xlink:href="#image-2"/><use transform="translate(2688 1536)" xlink:href="#image-2"/><use transform="matrix(0, -1, -1, 0, 2688, 1919)" xlink:href="#image"/><use transform="matrix(0, -1, -1, 0, 2816, 1919)" xlink:href="#image"/><use transform="matrix(0, -1, -1, 0, 2944, 1919)" xlink:href="#image"/><use transform="matrix(0, -1, -1, 0, 3072, 1919)" xlink:href="#image"/><use transform="matrix(0, -1, -1, 0, 3200, 1919)" xlink:href="#image"/><use transform="matrix(0, -1, -1, 0, 3328, 1919)" xlink:href="#image"/><use transform="matrix(0, -1, -1, 0, 3456, 1919)" xlink:href="#image"/><use transform="matrix(0, -1, -1, 0, 3584, 1919)" xlink:href="#image"/><use transform="matrix(1, 0, 0, -1, 3456, 1791)" xlink:href="#image-2"/><use transform="matrix(1, 0, 0, -1, 2688, 1791)" xlink:href="#image-2"/><use transform="matrix(1, 0, 0, -1, 2816, 1791)" xlink:href="#image-2"/><use transform="matrix(1, 0, 0, -1, 2944, 1791)" xlink:href="#image-2"/><use transform="matrix(1, 0, 0, -1, 3072, 1791)" xlink:href="#image-2"/><use transform="matrix(1, 0, 0, -1, 3200, 1791)" xlink:href="#image-2"/><use transform="matrix(1, 0, 0, -1, 3328, 1791)" xlink:href="#image-2"/><use transform="translate(2688 1791) rotate(180)" xlink:href="#image-3"/><use transform="translate(2560 1664) rotate(-90)" xlink:href="#image-3"/><use transform="translate(2176 640)" xlink:href="#image-17"/><use transform="translate(2304 384)" xlink:href="#image-17"/><use transform="translate(2176 1152)" xlink:href="#image-17"/><use transform="translate(1664 640)" xlink:href="#image-18"/><use transform="translate(1536 384)" xlink:href="#image-18"/><use transform="translate(1664 1152)" xlink:href="#image-18"/><use transform="translate(1920 1152) rotate(90)" xlink:href="#image-19"/><use transform="translate(2048 1152) rotate(90)" xlink:href="#image-19"/><use transform="translate(2176 1152) rotate(90)" xlink:href="#image-19"/><use transform="translate(1920 640) rotate(90)" xlink:href="#image-19"/><use transform="translate(1920 384) rotate(90)" xlink:href="#image-19"/><use transform="translate(2048 384) rotate(90)" xlink:href="#image-19"/><use transform="translate(2176 384) rotate(90)" xlink:href="#image-19"/><use transform="translate(2304 384) rotate(90)" xlink:href="#image-19"/><use transform="translate(1792 384) rotate(90)" xlink:href="#image-19"/><use transform="translate(2304 1408)" xlink:href="#image-17"/><use transform="translate(1536 1408)" xlink:href="#image-18"/><use transform="translate(2176 1408) rotate(90)" xlink:href="#image-19"/><use transform="translate(2304 1408) rotate(90)" xlink:href="#image-19"/><use transform="translate(1792 1408) rotate(90)" xlink:href="#image-19"/><use transform="translate(2176 640) rotate(90)" xlink:href="#image-19"/><use transform="translate(1792 768)" xlink:href="#image-20"/><use transform="translate(1792 896)" xlink:href="#image-20"/><use transform="translate(1792 1024)" xlink:href="#image-20"/><use transform="translate(1920 768)" xlink:href="#image-21"/><use transform="translate(2048 512)" xlink:href="#image-21"/><use transform="translate(1920 512)" xlink:href="#image-21"/><use transform="translate(1792 512)" xlink:href="#image-21"/><use transform="translate(1920 896)" xlink:href="#image-21"/><use transform="translate(1664 256)" xlink:href="#image-21"/><use transform="translate(1792 256)" xlink:href="#image-21"/><use transform="translate(1920 256)" xlink:href="#image-21"/><use transform="translate(2048 256)" xlink:href="#image-21"/><use transform="translate(2176 256)" xlink:href="#image-21"/><use transform="translate(1920 1536)" xlink:href="#image-21"/><use transform="translate(2176 1536)" xlink:href="#image-21"/><use transform="translate(2048 1536)" xlink:href="#image-21"/><use transform="translate(1664 1536)" xlink:href="#image-21"/><use transform="translate(1792 1536)" xlink:href="#image-21"/><use transform="translate(1792 1280)" xlink:href="#image-21"/><use transform="translate(1920 1280)" xlink:href="#image-21"/><use transform="translate(2048 1280)" xlink:href="#image-21"/><use transform="translate(1920 1024)" xlink:href="#image-21"/><use transform="translate(2048 768)" xlink:href="#image-22"/><use transform="translate(2048 896)" xlink:href="#image-22"/><use transform="translate(2048 1024)" xlink:href="#image-22"/><use transform="translate(2304 896)" xlink:href="#image-4"/><use transform="translate(2176 1024) rotate(-90)" xlink:href="#image-2"/><use transform="translate(2560 896) rotate(90)" xlink:href="#image-2"/><use transform="translate(2432 1152) rotate(180)" xlink:href="#image-2"/><use transform="translate(2304 768)" xlink:href="#image-2"/><use transform="translate(2176 896) rotate(-90)" xlink:href="#image-3"/><use transform="translate(2432 768)" xlink:href="#image-3"/><use transform="translate(2304 1152) rotate(180)" xlink:href="#image-3"/><use transform="translate(2560 1024) rotate(90)" xlink:href="#image-3"/><use transform="translate(1664 512)" xlink:href="#image-25"/><use transform="translate(1408 640) rotate(-90)" xlink:href="#image-23"/><use transform="translate(1408 1408) rotate(-90)" xlink:href="#image-23"/><use transform="translate(2304 1408) rotate(-90)" xlink:href="#image-23"/><use transform="translate(2304.01 640) rotate(-90)" xlink:href="#image-23"/><use transform="translate(1664 512) rotate(90)" xlink:href="#image-23"/><use transform="translate(1664 1280) rotate(90)" xlink:href="#image-23"/><use transform="translate(2560 1280) rotate(90)" xlink:href="#image-23"/><use transform="translate(2560 512) rotate(90)" xlink:href="#image-23"/><use transform="translate(2176 512)" xlink:href="#image-29"/><use transform="translate(2176 1280)" xlink:href="#image-28"/><use transform="translate(1664 1280)" xlink:href="#image-26"/><use transform="translate(1536 256)" xlink:href="#image-24"/><use transform="translate(2304 256)" xlink:href="#image-24"/><use transform="translate(1408 256)" xlink:href="#image-25"/><use transform="translate(1408 1536)" xlink:href="#image-26"/><use transform="translate(1536 1536)" xlink:href="#image-27"/><use transform="translate(2304 1536)" xlink:href="#image-27"/><use transform="translate(2432 1536)" xlink:href="#image-28"/><use transform="translate(2432 256)" xlink:href="#image-29"/><use transform="translate(2560 512)" xlink:href="#image-8"/><use transform="translate(2560 768)" xlink:href="#image-8"/><use transform="translate(2560 896)" xlink:href="#image-8"/><use transform="translate(2560 1024)" xlink:href="#image-8"/><use transform="translate(2560 1280)" xlink:href="#image-8"/><use transform="translate(3456 512) rotate(180)" xlink:href="#image-3"/><use transform="translate(3584 640) rotate(180)" xlink:href="#image-3"/><use transform="translate(3456 1408) rotate(-90)" xlink:href="#image-3"/><use transform="translate(3328 1536) rotate(-90)" xlink:href="#image-3"/><use transform="translate(3456 768)" xlink:href="#image-16"/><use transform="translate(3456 896)" xlink:href="#image-16"/><use transform="translate(3456 1024)" xlink:href="#image-16"/><use transform="translate(3200 1280)" xlink:href="#image-30"/><use transform="translate(2688 1152)" xlink:href="#image-10"/><use transform="translate(2816 1152)" xlink:href="#image-10"/><use transform="translate(2944 1152)" xlink:href="#image-10"/><use transform="translate(3072 1152)" xlink:href="#image-10"/><use transform="translate(3200 1152)" xlink:href="#image-10"/><use transform="translate(3200 1024)" xlink:href="#image-10"/><use transform="translate(3200 896)" xlink:href="#image-10"/><use transform="translate(3200 768)" xlink:href="#image-10"/><use transform="translate(3200 640)" xlink:href="#image-10"/><use transform="translate(3328 1024)" xlink:href="#image-10"/><use transform="translate(3328 896)" xlink:href="#image-10"/><use transform="translate(3328 768)" xlink:href="#image-10"/><use transform="translate(2688 1024)" xlink:href="#image-10"/><use transform="translate(2816 1024)" xlink:href="#image-10"/><use transform="translate(2944 1024)" xlink:href="#image-10"/><use transform="translate(3072 1024)" xlink:href="#image-10"/><use transform="translate(2688 896)" xlink:href="#image-10"/><use transform="translate(2816 896)" xlink:href="#image-10"/><use transform="translate(2944 896)" xlink:href="#image-10"/><use transform="translate(3072 896)" xlink:href="#image-10"/><use transform="translate(2688 768)" xlink:href="#image-10"/><use transform="translate(2816 768)" xlink:href="#image-10"/><use transform="translate(2944 768)" xlink:href="#image-10"/><use transform="translate(3072 768)" xlink:href="#image-10"/><use transform="translate(2688 640)" xlink:href="#image-10"/><use transform="translate(2688 512)" xlink:href="#image-10"/><use transform="translate(2816 640)" xlink:href="#image-10"/><use transform="translate(2816 512)" xlink:href="#image-10"/><use transform="translate(2944 640)" xlink:href="#image-10"/><use transform="translate(2944 512)" xlink:href="#image-10"/><use transform="translate(3072 640)" xlink:href="#image-10"/><use transform="translate(3072 512)" xlink:href="#image-10"/><use transform="translate(3328 1152)" xlink:href="#image-30"/><use transform="translate(3200 512)" xlink:href="#image-31"/><use transform="translate(3328 640)" xlink:href="#image-31"/><use transform="translate(3328 512)" xlink:href="#image-32"/><use transform="translate(3200 384)" xlink:href="#image-32"/><use transform="translate(3456 640)" xlink:href="#image-32"/><use transform="translate(3328 1280)" xlink:href="#image-33"/><use transform="translate(3200 1408)" xlink:href="#image-33"/><use transform="translate(3456 1152)" xlink:href="#image-33"/><use transform="translate(1408 1663)" xlink:href="#image-25"/><use transform="translate(2432 1663)" xlink:href="#image-29"/><use transform="translate(2304 1663)" xlink:href="#image-24"/><use transform="translate(2176 1663)" xlink:href="#image-24"/><use transform="translate(1920 1663)" xlink:href="#image-24"/><use transform="translate(1792 1663)" xlink:href="#image-24"/><use transform="translate(2048 1663)" xlink:href="#image-24"/><use transform="translate(1664 1663)" xlink:href="#image-24"/><use transform="translate(1536 1663)" xlink:href="#image-24"/><use transform="translate(2432 128)" xlink:href="#image-28"/><use transform="translate(1408 128)" xlink:href="#image-26"/><use transform="translate(1536 128)" xlink:href="#image-27"/><use transform="translate(1664 128)" xlink:href="#image-27"/><use transform="translate(1792 128)" xlink:href="#image-27"/><use transform="translate(1920 128)" xlink:href="#image-27"/><use transform="translate(2048 128)" xlink:href="#image-27"/><use transform="translate(2176 128)" xlink:href="#image-27"/><use transform="translate(2304 128)" xlink:href="#image-27"/><use transform="translate(2560 256) rotate(-90)" xlink:href="#image-34"/><use transform="translate(2688 384) rotate(180)" xlink:href="#image-34"/><use transform="translate(1792 1408)" xlink:href="#image-35"/><use transform="translate(2048 1536.01) rotate(180)" xlink:href="#image-35"/><image width="128" height="128" transform="translate(1920 640)" xlink:href="NEW_TILE/broken01.png"/><use transform="translate(3584 768) rotate(-90)" xlink:href="#image-2"/><use transform="translate(3584 896) rotate(-90)" xlink:href="#image-2"/><use transform="translate(3584 1024) rotate(-90)" xlink:href="#image-2"/><use transform="translate(3584 1152) rotate(-90)" xlink:href="#image-2"/><use transform="translate(3584 1280) rotate(-90)" xlink:href="#image-2"/></svg>